<svg width="21" height="36" viewBox="0 0 21 36" fill="none" xmlns="http://www.w3.org/2000/svg">
<g clip-path="url(#clip0_199_3080)">
<path d="M14.7093 16.4109L7.1155 14.1891C6.2366 13.9359 5.62488 13.1133 5.62488 12.1992C5.62488 11.0531 6.553 10.125 7.6991 10.125H12.3608C13.2186 10.125 14.0624 10.3852 14.7655 10.8633C15.1944 11.1516 15.771 11.0812 16.1366 10.7227L18.5835 8.33203C19.0827 7.84687 19.0124 7.03828 18.4569 6.60938C16.7343 5.25937 14.5827 4.50703 12.3749 4.5V1.125C12.3749 0.50625 11.8686 0 11.2499 0H8.99988C8.38113 0 7.87488 0.50625 7.87488 1.125V4.5H7.6991C3.22019 4.5 -0.379808 8.34609 0.0350361 12.9094C0.330349 16.1508 2.80535 18.7875 5.92722 19.7016L13.1343 21.8109C14.0132 22.0711 14.6249 22.8867 14.6249 23.8008C14.6249 24.9469 13.6968 25.875 12.5507 25.875H7.88894C7.03113 25.875 6.18738 25.6148 5.48425 25.1367C5.05535 24.8484 4.47879 24.9188 4.11316 25.2773L1.66629 27.668C1.16707 28.1531 1.23738 28.9617 1.79285 29.3906C3.5155 30.7406 5.66707 31.493 7.87488 31.5V34.875C7.87488 35.4938 8.38113 36 8.99988 36H11.2499C11.8686 36 12.3749 35.4938 12.3749 34.875V31.4859C15.6514 31.4227 18.7241 29.475 19.8069 26.3742C21.3186 22.043 18.7803 17.5992 14.7093 16.4109Z" fill="white"/>
</g>
<defs>
<clipPath id="clip0_199_3080">
<rect width="20.25" height="36" fill="white"/>
</clipPath>
</defs>
</svg>
