<svg width="16" height="30" viewBox="0 0 16 30" fill="none" xmlns="http://www.w3.org/2000/svg">
<path d="M9.375 12.75C9.1875 12.75 9.1875 12.5625 9 12.5625V6.75C11.25 6.9375 13.125 7.875 13.125 7.875L14.8125 4.5C14.625 4.5 12 3 9 3V0H7.125V3C5.625 3.375 4.5 3.9375 3.375 4.6875C2.25 5.8125 1.5 7.3125 1.5 9C1.5 10.3125 1.875 13.3125 7.125 15.75V23.0625C5.4375 22.6875 3.375 21.75 2.625 21.375L0.75 24.5625C1.125 24.75 4.125 26.4375 7.125 26.8125V30H9V26.8125C13.3125 26.25 15.75 22.875 15.75 19.6875C15.75 16.875 13.875 14.625 9.375 12.75ZM7.125 11.625C5.625 10.6875 5.25 9.75 5.25 9.1875C5.25 8.4375 5.4375 7.875 6 7.5L7.125 6.9375V11.625ZM9 23.0625V16.6875C11.0625 17.625 12 18.75 12 19.6875C12 20.8125 11.4375 22.6875 9 23.0625Z" fill="black"/>
</svg>
