<svg width="32" height="32" viewBox="0 0 32 32" fill="none" xmlns="http://www.w3.org/2000/svg">
<path d="M15.8667 22.6667C16.3333 22.6667 16.728 22.5054 17.0507 22.1827C17.3733 21.86 17.5342 21.4658 17.5333 21C17.5333 20.5334 17.372 20.1387 17.0493 19.816C16.7267 19.4934 16.3324 19.3325 15.8667 19.3334C15.4 19.3334 15.0053 19.4947 14.6827 19.8174C14.36 20.14 14.1991 20.5342 14.2 21C14.2 21.4667 14.3613 21.8614 14.684 22.184C15.0067 22.5067 15.4009 22.6676 15.8667 22.6667ZM14.6667 17.5334H17.1333C17.1333 17.1556 17.1502 16.8334 17.184 16.5667C17.2178 16.3 17.2898 16.0445 17.4 15.8C17.5111 15.5556 17.6498 15.328 17.816 15.1174C17.9822 14.9067 18.2213 14.6454 18.5333 14.3334C19.3111 13.5556 19.8613 12.9054 20.184 12.3827C20.5067 11.86 20.6676 11.2658 20.6667 10.6C20.6667 9.42224 20.2667 8.47202 19.4667 7.74936C18.6667 7.02669 17.5889 6.6658 16.2333 6.66669C15.0111 6.66669 13.9724 6.96669 13.1173 7.56669C12.2622 8.16669 11.6676 9.00002 11.3333 10.0667L13.5333 10.9334C13.6889 10.3334 14 9.85024 14.4667 9.48402C14.9333 9.1178 15.4778 8.93424 16.1 8.93336C16.7 8.93336 17.2 9.09469 17.6 9.41736C18 9.74002 18.2 10.1676 18.2 10.7C18.2 11.0778 18.0778 11.4778 17.8333 11.9C17.5889 12.3222 17.1778 12.7889 16.6 13.3C16.2222 13.6111 15.9164 13.9169 15.6827 14.2174C15.4489 14.5178 15.2547 14.8342 15.1 15.1667C14.9444 15.5 14.8333 15.8502 14.7667 16.2174C14.7 16.5845 14.6667 17.0231 14.6667 17.5334ZM16 30.6667L12 26.6667H6.66667C5.93334 26.6667 5.30534 26.4054 4.78267 25.8827C4.26 25.36 3.99911 24.7325 4 24V5.33336C4 4.60002 4.26134 3.97202 4.784 3.44936C5.30667 2.92669 5.93422 2.6658 6.66667 2.66669H25.3333C26.0667 2.66669 26.6947 2.92802 27.2173 3.45069C27.74 3.97336 28.0009 4.60091 28 5.33336V24C28 24.7334 27.7387 25.3614 27.216 25.884C26.6933 26.4067 26.0658 26.6676 25.3333 26.6667H20L16 30.6667ZM6.66667 24H13.0667L16 26.9334L18.9333 24H25.3333V5.33336H6.66667V24Z" fill="#8E8E8E"/>
</svg>
