<svg width="31" height="31" viewBox="0 0 31 31" fill="none" xmlns="http://www.w3.org/2000/svg">
<g clip-path="url(#clip0_175_3027)">
<path fill-rule="evenodd" clip-rule="evenodd" d="M23.7803 19.0681C23.2182 19.0681 22.7604 19.5316 22.7604 20.1015C22.7604 20.6714 23.2182 21.1348 23.7803 21.1348C24.3424 21.1348 24.8002 20.6714 24.8002 20.1015C24.8002 19.5316 24.3424 19.0681 23.7803 19.0681ZM23.7803 22.1681C22.6483 22.1681 21.7271 21.2412 21.7271 20.1015C21.7271 18.9617 22.6483 18.0348 23.7803 18.0348C24.9123 18.0348 25.8335 18.9617 25.8335 20.1015C25.8335 21.2412 24.9123 22.1681 23.7803 22.1681Z" fill="#8E8E8E"/>
<path fill-rule="evenodd" clip-rule="evenodd" d="M23.767 17.0015C22.0574 17.0015 20.667 18.3919 20.667 20.1016C20.667 21.8112 22.0574 23.2016 23.767 23.2016H29.9671V17.0015H23.767ZM31.0004 24.2349H23.767C21.488 24.2349 19.6337 22.3806 19.6337 20.1016C19.6337 17.8225 21.488 15.9682 23.767 15.9682H31.0004V24.2349Z" fill="#8E8E8E"/>
<path fill-rule="evenodd" clip-rule="evenodd" d="M29.3809 30.9516H26.8668C26.5816 30.9516 26.3501 30.7201 26.3501 30.4349C26.3501 30.1497 26.5816 29.9182 26.8668 29.9182H29.3809C29.7038 29.9182 29.9668 29.6511 29.9668 29.3225V23.7182C29.9668 23.433 30.1982 23.2015 30.4835 23.2015C30.7692 23.2015 31.0001 23.433 31.0001 23.7182V29.3225C31.0001 30.2205 30.2737 30.9516 29.3809 30.9516Z" fill="#8E8E8E"/>
<path fill-rule="evenodd" clip-rule="evenodd" d="M26.7976 30.974L1.61924 30.9518C0.726953 30.9518 0 30.2207 0 29.3228V10.8803C0 9.98228 0.726954 9.25171 1.61976 9.25171H26.7976C27.6904 9.25171 28.4168 9.98228 28.4168 10.8803V16.4851C28.4168 16.7703 28.1859 17.0017 27.9001 17.0017C27.6149 17.0017 27.3835 16.7703 27.3835 16.4851V10.8803C27.3835 10.5522 27.1205 10.285 26.7976 10.285H1.61976C1.29632 10.285 1.03334 10.5522 1.03334 10.8803V29.3228C1.03334 29.6508 1.29632 29.9185 1.61976 29.9185L26.7981 29.9407C27.1205 29.9407 27.3835 29.6736 27.3835 29.345V23.7184C27.3835 23.4327 27.6149 23.2018 27.9001 23.2018C28.1859 23.2018 28.4168 23.4327 28.4168 23.7184V29.345C28.4168 30.2429 27.6904 30.974 26.7976 30.974Z" fill="#8E8E8E"/>
<path fill-rule="evenodd" clip-rule="evenodd" d="M25.3169 28.3793H23.7669C23.4817 28.3793 23.2502 28.1479 23.2502 27.8627C23.2502 27.5775 23.4817 27.346 23.7669 27.346H25.3169C25.6021 27.346 25.8336 27.5775 25.8336 27.8627C25.8336 28.1479 25.6021 28.3793 25.3169 28.3793Z" fill="#8E8E8E"/>
<path fill-rule="evenodd" clip-rule="evenodd" d="M21.7003 28.3793H19.6336C19.3484 28.3793 19.1169 28.1479 19.1169 27.8627C19.1169 27.5775 19.3484 27.346 19.6336 27.346H21.7003C21.9855 27.346 22.217 27.5775 22.217 27.8627C22.217 28.1479 21.9855 28.3793 21.7003 28.3793Z" fill="#8E8E8E"/>
<path fill-rule="evenodd" clip-rule="evenodd" d="M17.567 28.3793H15.5003C15.2151 28.3793 14.9836 28.1479 14.9836 27.8627C14.9836 27.5775 15.2151 27.346 15.5003 27.346H17.567C17.8522 27.346 18.0837 27.5775 18.0837 27.8627C18.0837 28.1479 17.8522 28.3793 17.567 28.3793Z" fill="#8E8E8E"/>
<path fill-rule="evenodd" clip-rule="evenodd" d="M13.4336 28.3793H11.3669C11.0817 28.3793 10.8502 28.1479 10.8502 27.8627C10.8502 27.5775 11.0817 27.346 11.3669 27.346H13.4336C13.7188 27.346 13.9502 27.5775 13.9502 27.8627C13.9502 28.1479 13.7188 28.3793 13.4336 28.3793Z" fill="#8E8E8E"/>
<path fill-rule="evenodd" clip-rule="evenodd" d="M9.30026 28.3793H7.23359C6.94839 28.3793 6.71692 28.1479 6.71692 27.8627C6.71692 27.5775 6.94839 27.346 7.23359 27.346H9.30026C9.58547 27.346 9.81693 27.5775 9.81693 27.8627C9.81693 28.1479 9.58547 28.3793 9.30026 28.3793Z" fill="#8E8E8E"/>
<path fill-rule="evenodd" clip-rule="evenodd" d="M5.16684 28.3793H3.10017C2.81496 28.3793 2.5835 28.1479 2.5835 27.8627C2.5835 27.5775 2.81496 27.346 3.10017 27.346H5.16684C5.45204 27.346 5.68351 27.5775 5.68351 27.8627C5.68351 28.1479 5.45204 28.3793 5.16684 28.3793Z" fill="#8E8E8E"/>
<path fill-rule="evenodd" clip-rule="evenodd" d="M25.3169 12.8681H23.7669C23.4817 12.8681 23.2502 12.6366 23.2502 12.3514C23.2502 12.0662 23.4817 11.8348 23.7669 11.8348H25.3169C25.6021 11.8348 25.8336 12.0662 25.8336 12.3514C25.8336 12.6366 25.6021 12.8681 25.3169 12.8681Z" fill="#8E8E8E"/>
<path fill-rule="evenodd" clip-rule="evenodd" d="M21.7003 12.8681H19.6336C19.3484 12.8681 19.1169 12.6366 19.1169 12.3514C19.1169 12.0662 19.3484 11.8348 19.6336 11.8348H21.7003C21.9855 11.8348 22.217 12.0662 22.217 12.3514C22.217 12.6366 21.9855 12.8681 21.7003 12.8681Z" fill="#8E8E8E"/>
<path fill-rule="evenodd" clip-rule="evenodd" d="M17.567 12.8681H15.5003C15.2151 12.8681 14.9836 12.6366 14.9836 12.3514C14.9836 12.0662 15.2151 11.8348 15.5003 11.8348H17.567C17.8522 11.8348 18.0837 12.0662 18.0837 12.3514C18.0837 12.6366 17.8522 12.8681 17.567 12.8681Z" fill="#8E8E8E"/>
<path fill-rule="evenodd" clip-rule="evenodd" d="M13.4336 12.8681H11.3669C11.0817 12.8681 10.8502 12.6366 10.8502 12.3514C10.8502 12.0662 11.0817 11.8348 11.3669 11.8348H13.4336C13.7188 11.8348 13.9502 12.0662 13.9502 12.3514C13.9502 12.6366 13.7188 12.8681 13.4336 12.8681Z" fill="#8E8E8E"/>
<path fill-rule="evenodd" clip-rule="evenodd" d="M9.30026 12.8681H7.23359C6.94839 12.8681 6.71692 12.6366 6.71692 12.3514C6.71692 12.0662 6.94839 11.8348 7.23359 11.8348H9.30026C9.58547 11.8348 9.81693 12.0662 9.81693 12.3514C9.81693 12.6366 9.58547 12.8681 9.30026 12.8681Z" fill="#8E8E8E"/>
<path fill-rule="evenodd" clip-rule="evenodd" d="M5.16684 12.8681H3.10017C2.81496 12.8681 2.5835 12.6366 2.5835 12.3514C2.5835 12.0662 2.81496 11.8348 3.10017 11.8348H5.16684C5.45204 11.8348 5.68351 12.0662 5.68351 12.3514C5.68351 12.6366 5.45204 12.8681 5.16684 12.8681Z" fill="#8E8E8E"/>
<path fill-rule="evenodd" clip-rule="evenodd" d="M22.0845 10.2848C21.9063 10.2848 21.7332 10.1929 21.6371 10.0275C20.2405 7.62036 17.3596 6.57411 14.7866 7.54441C13.5497 8.00993 12.5401 8.86863 11.8674 10.0275C11.7243 10.2745 11.4076 10.3587 11.1611 10.2151C10.9141 10.0714 10.8304 9.75576 10.9736 9.50879C11.7563 8.16131 12.9808 7.12023 14.4228 6.57721C17.4696 5.4302 20.8797 6.66349 22.5309 9.50879C22.674 9.75576 22.5903 10.072 22.3434 10.2151C22.2617 10.2626 22.1724 10.2848 22.0845 10.2848Z" fill="#8E8E8E"/>
<path fill-rule="evenodd" clip-rule="evenodd" d="M26.6028 10.2851C26.3925 10.2851 26.1952 10.1559 26.1182 9.94719L25.4212 8.06084C23.8237 8.51757 22.1187 7.72397 21.4382 6.20444L18.2318 7.16338C17.9579 7.24553 17.6701 7.0895 17.5885 6.81618C17.5069 6.54286 17.6624 6.25508 17.9357 6.17344L21.6123 5.07397C21.7456 5.03367 21.8903 5.04969 22.0117 5.11737C22.1336 5.18557 22.223 5.29976 22.2592 5.43461C22.2773 5.50229 22.2979 5.57049 22.3222 5.63714C22.7671 6.83943 24.1063 7.45582 25.3091 7.01148L25.4067 6.97738C25.4408 6.96601 25.476 6.95568 25.5085 6.94018C25.6398 6.87766 25.7906 6.87301 25.925 6.92778C26.0598 6.98255 26.1647 7.09156 26.2153 7.22745L27.0875 9.58914C27.1861 9.85678 27.0497 10.1539 26.7821 10.2531C26.7227 10.2748 26.6622 10.2851 26.6028 10.2851Z" fill="#8E8E8E"/>
<path fill-rule="evenodd" clip-rule="evenodd" d="M30.4836 17.0015C30.1984 17.0015 29.9669 16.77 29.9669 16.4848V10.8805C29.9669 10.5519 29.7039 10.2848 29.381 10.2848H26.8669C26.5817 10.2848 26.3502 10.0533 26.3502 9.76814C26.3502 9.48294 26.5817 9.25146 26.8669 9.25146H29.381C30.2738 9.25146 31.0002 9.98255 31.0002 10.8805V16.4848C31.0002 16.77 30.7688 17.0015 30.4836 17.0015Z" fill="#8E8E8E"/>
<path fill-rule="evenodd" clip-rule="evenodd" d="M1.33852 10.3259C1.12823 10.3259 0.930864 10.1968 0.85388 9.98805C0.755197 9.72041 0.891597 9.42333 1.15923 9.32465L26.3107 0.0318323C26.443 -0.0167346 26.5897 -0.00950121 26.7158 0.0519824C26.8429 0.113983 26.9384 0.225067 26.9818 0.358884L29.9424 9.61088C29.9889 9.75555 29.9692 9.91365 29.8881 10.0428C29.807 10.1715 29.6737 10.2583 29.5228 10.28C29.2392 10.3187 28.9643 10.125 28.9245 9.84235C28.923 9.83098 28.9214 9.82013 28.9209 9.80876L26.1619 1.18814L1.5178 10.2939C1.45838 10.3156 1.39793 10.3259 1.33852 10.3259Z" fill="#8E8E8E"/>
</g>
<defs>
<clipPath id="clip0_175_3027">
<rect width="31" height="31" fill="white"/>
</clipPath>
</defs>
</svg>
