<svg width="30" height="30" viewBox="0 0 30 30" fill="none" xmlns="http://www.w3.org/2000/svg">
<path d="M7.8125 2.5C7.06658 2.5 6.35121 2.79632 5.82376 3.32376C5.29632 3.85121 5 4.56658 5 5.3125V24.6875C5 25.4334 5.29632 26.1488 5.82376 26.6762C6.35121 27.2037 7.06658 27.5 7.8125 27.5H17.1875C17.9289 27.5 18.6403 27.2073 19.167 26.6855C19.6937 26.1638 19.9931 25.4551 20 24.7137V22.8137C20 22.5651 19.9012 22.3267 19.7254 22.1508C19.5496 21.975 19.3111 21.8762 19.0625 21.8762C18.4962 21.8762 18.1388 21.7225 17.8925 21.5237C17.6325 21.315 17.4175 20.9925 17.2538 20.5375C16.9125 19.5938 16.8763 18.35 16.8763 17.1875C16.8762 16.9499 16.786 16.7211 16.6237 16.5475L16.4175 16.3262C16.3503 16.2507 16.2794 16.1785 16.205 16.11C16.1125 16.0225 15.83 15.7538 14.7263 14.65C14.14 14.0638 13.8163 13.5688 13.71 13.19C13.667 13.0588 13.6601 12.9185 13.69 12.7838C13.737 12.6283 13.8256 12.4887 13.9462 12.38C14.0547 12.2599 14.1938 12.1717 14.3488 12.125C14.4831 12.0951 14.623 12.102 14.7538 12.145C15.1313 12.2512 15.6263 12.5775 16.2125 13.1638C16.8875 13.8388 17.5288 14.4713 18.1025 15.0388C19.0525 15.9788 19.8187 16.7387 20.2525 17.2012C20.4224 17.3816 20.6569 17.4873 20.9045 17.4953C21.1522 17.5033 21.3929 17.4129 21.5742 17.2439C21.7554 17.0749 21.8623 16.8411 21.8716 16.5934C21.8809 16.3458 21.7918 16.1046 21.6237 15.9225C21.0917 15.366 20.5503 14.8184 20 14.28V10.075L23.5512 13.6275C24.0787 14.155 24.3762 14.87 24.3762 15.615V26.5625C24.3762 26.8111 24.475 27.0496 24.6508 27.2254C24.8267 27.4012 25.0651 27.5 25.3137 27.5C25.5624 27.5 25.8008 27.4012 25.9767 27.2254C26.1525 27.0496 26.2512 26.8111 26.2512 26.5625V15.6163C26.2512 15.0005 26.1299 14.3909 25.8941 13.8221C25.6584 13.2533 25.313 12.7365 24.8775 12.3012L20 7.42375V5.31125C19.9997 4.56555 19.7032 3.8505 19.1758 3.32332C18.6484 2.79614 17.9332 2.5 17.1875 2.5H7.8125ZM16.7175 22.985C17.1284 23.3138 17.6104 23.5424 18.125 23.6525V23.75H17.1875C16.9389 23.75 16.7004 23.8488 16.5246 24.0246C16.3488 24.2004 16.25 24.4389 16.25 24.6875V25.625H14.375V24.6875C14.3751 24.1576 14.5248 23.6385 14.807 23.19C15.0892 22.7415 15.4923 22.3819 15.97 22.1525C16.17 22.4575 16.415 22.7425 16.7175 22.985ZM15.0025 17.5575C15.005 17.8737 15.0113 18.215 15.03 18.57C14.448 18.9823 13.7739 19.246 13.0667 19.3382C12.3594 19.4304 11.6403 19.3482 10.972 19.0989C10.3037 18.8496 9.70654 18.4407 9.23246 17.9078C8.75838 17.3748 8.42179 16.7341 8.25199 16.0413C8.0822 15.3486 8.08435 14.6248 8.25827 13.9331C8.43219 13.2413 8.7726 12.6026 9.24985 12.0725C9.7271 11.5425 10.3267 11.1371 10.9965 10.8918C11.6662 10.6465 12.3858 10.5686 13.0925 10.665C12.9262 10.7762 12.7675 10.9062 12.62 11.055C12.255 11.42 11.995 11.8425 11.8737 12.3175C11.7525 12.7925 11.7813 13.26 11.905 13.6975C12.1413 14.5388 12.7362 15.3113 13.4012 15.9763C13.9096 16.4908 14.4247 16.9988 14.9462 17.5L14.9513 17.5038L14.9975 17.5525L15.0025 17.5575ZM8.75 4.375H10.625V5.3125C10.625 6.05842 10.3287 6.77379 9.80124 7.30124C9.27379 7.82868 8.55842 8.125 7.8125 8.125H6.875V6.25H7.8125C8.06114 6.25 8.2996 6.15123 8.47541 5.97541C8.65123 5.7996 8.75 5.56114 8.75 5.3125V4.375ZM14.375 4.375H16.25V5.3125C16.25 5.83 16.67 6.25 17.1875 6.25H18.125V8.125H17.1875C16.4416 8.125 15.7262 7.82868 15.1988 7.30124C14.6713 6.77379 14.375 6.05842 14.375 5.3125V4.375ZM10.625 25.625H8.75V24.6875C8.75 24.4389 8.65123 24.2004 8.47541 24.0246C8.2996 23.8488 8.06114 23.75 7.8125 23.75H6.875V21.875H7.8125C8.55842 21.875 9.27379 22.1713 9.80124 22.6988C10.3287 23.2262 10.625 23.9416 10.625 24.6875V25.625Z" fill="black"/>
</svg>
