<svg width="31" height="38" viewBox="0 0 31 38" fill="none" xmlns="http://www.w3.org/2000/svg">
<path d="M25.8024 18.3811L22.9559 12.9935C23.5314 12.5591 23.9832 12.0077 24.3674 11.3237C25.6414 9.05554 25.1448 6.31394 23.2727 5.26244C21.4006 4.21093 18.801 5.2135 17.5271 7.48161C17.1631 8.12964 16.9431 8.85855 16.8356 9.55591L10.7537 9.92861C10.549 9.95573 10.3399 10.0751 10.2388 10.2551L0.33038 27.8959C0.16861 28.1839 0.279073 28.5775 0.567086 28.7393L14.9678 36.8278C15.2558 36.9895 15.6493 36.8791 15.8111 36.591L25.7195 18.9502C25.9129 18.7747 25.8857 18.57 25.8024 18.3811ZM18.6431 8.10847C19.5935 6.41639 21.406 5.63474 22.7021 6.36271C23.9981 7.09067 24.2738 9.04515 23.3234 10.7372C23.0605 11.2053 22.7458 11.5968 22.3996 11.876L21.2308 9.65662C21.1115 9.44751 20.8955 9.32618 20.6548 9.33308L18.1514 9.48985C18.2298 9.01295 18.4005 8.54049 18.6431 8.10847ZM15.1064 35.4848L1.78576 28.003L11.2291 11.1902L17.4594 10.8061L20.3362 10.5749L21.3338 12.5087C21.0887 12.6078 20.8076 12.6867 20.5669 12.6936C20.4002 12.3158 20.0851 11.9494 19.6891 11.727C19.1491 11.4236 18.5395 11.4128 17.9773 11.5706C17.921 11.5864 17.8648 11.6021 17.7884 11.6539C17.4106 11.8206 17.1004 12.12 16.8779 12.516C16.3118 13.524 16.6589 14.7609 17.667 15.3271C18.675 15.8933 19.9119 15.5462 20.4781 14.5381C20.5792 14.3581 20.6645 14.1219 20.6734 13.9374C21.0828 13.8832 21.5123 13.7929 21.8901 13.6263L24.5137 18.6518L15.0704 35.4646L15.1064 35.4848ZM19.3981 13.9315C19.1756 14.3275 18.6696 14.4695 18.2736 14.2471C17.8776 14.0246 17.7356 13.5186 17.958 13.1226C17.9782 13.0866 17.9984 13.0506 18.0187 13.0146C18.1942 13.2079 18.426 13.3855 18.678 13.5271C18.93 13.6686 19.1663 13.7539 19.4587 13.8235C19.4183 13.8955 19.3981 13.9315 19.3981 13.9315Z" fill="#8E8E8E"/>
<path d="M18.4761 21.5595C18.5294 20.4528 17.7527 19.3061 16.4926 18.5984C14.8365 17.6682 12.7721 18.3083 12.1048 19.4964C11.8419 19.9644 11.7141 20.6978 11.618 21.5436L10.7539 21.0582C10.4659 20.8965 10.0723 21.0069 9.91057 21.2949C9.7488 21.583 9.85926 21.9765 10.1473 22.1383L11.4793 22.8865C11.3718 23.5838 11.2845 24.2452 11.0823 24.6052C10.6981 25.2892 9.27229 25.7197 8.82251 25.846C8.50539 25.9047 8.30762 26.1725 8.31008 26.5054C8.3372 26.71 8.45654 26.9191 8.63655 27.0202C8.70855 27.0607 8.78056 27.1011 8.87278 27.1056C10.3844 27.1968 11.1226 27.9904 11.6133 28.5502C11.8249 28.7637 11.9645 28.9368 12.1445 29.0379C12.5765 29.2806 12.9612 29.3546 13.3187 29.2239C13.6561 29.1292 13.9461 28.8659 14.1685 28.4698C14.3303 28.1818 14.2198 27.7883 13.9318 27.6265C13.6438 27.4647 13.2502 27.5752 13.0885 27.8632C13.048 27.9352 13.0076 28.0072 13.0076 28.0072C13.0076 28.0072 12.9154 28.0028 12.8074 27.9421C12.7714 27.9219 12.6476 27.805 12.5598 27.7083C12.2446 27.3419 11.7337 26.8181 10.9575 26.4295C11.4521 26.139 11.895 25.7721 12.1781 25.2681C12.4208 24.836 12.5599 24.2511 12.6472 23.5898L14.4833 24.6211C14.7713 24.7828 15.1648 24.6724 15.3266 24.3844C15.4884 24.0963 15.3779 23.7028 15.0899 23.541L12.8218 22.2671C12.918 21.4213 13.0344 20.5395 13.2366 20.1795C13.5601 19.6034 14.8577 19.1483 15.9378 19.7549C16.7658 20.22 17.3038 20.9484 17.2728 21.594C17.2752 21.9269 17.5386 22.2169 17.8512 22.2504C18.1684 22.1917 18.4584 21.9284 18.4761 21.5595Z" fill="#8E8E8E"/>
</svg>
